<svg width="1440" height="427" viewBox="0 0 1440 427" fill="none" xmlns="http://www.w3.org/2000/svg">
<path d="M-1 55.3595C-1 55.3595 60.5073 27.0368 90.2156 19.0246C119.924 11.0125 135.798 5.17652 162.516 3.31362C189.233 1.45072 227.534 5.16006 246.029 10.6993C264.524 16.2385 340.566 39.6484 348.968 38.0988C348.968 38.0988 407.635 27.9435 425.57 22.3878C443.505 16.832 485.536 11.3093 496.75 12.5292C507.963 13.7656 550.745 11.606 607.721 40.2419C607.721 40.2419 701.227 16.5353 719.212 11.9192C737.187 7.3032 802.956 0 811.918 0C820.881 0 884.218 1.13752 894.491 3.29717C904.764 5.45682 966.601 13.1557 992.949 24.8441C1019.29 36.5491 1038.72 40.8519 1038.72 40.8519C1038.72 40.8519 1098.51 22.0745 1117 19.3049C1135.5 16.5353 1147.83 12.216 1176.6 14.6888C1205.37 17.1617 1239.19 25.1574 1261.04 37.4723C1261.04 37.4723 1327.36 18.3817 1345.3 17.1453C1363.23 15.9088 1370.51 12.8425 1407.51 15.6121C1407.51 15.6121 1435.81 18.9917 1439.4 23.6242C1443 28.2402 1439.4 427 1439.4 427H-1V55.343" fill="#E8EBF4"/>
</svg>
