<?xml version="1.0" encoding="UTF-8"?>
<svg id="_レイヤー_1" data-name="レイヤー_1" xmlns="http://www.w3.org/2000/svg" version="1.1" viewBox="0 0 1440 900">
  <!-- Generator: Adobe Illustrator 30.3.0, SVG Export Plug-In . SVG Version: 2.1.3 Build 182)  -->
  <defs>
    <style>
      .st0 {
        fill: #5f97b3;
      }
    </style>
  </defs>
  <path class="st0" d="M0,106.76s24.83-6.57,39.11-7.19,10.52-.51,10.52-.51c0,0,22.55-.55,27.59.77,0,0,24.32,1.63,48.78,7.9s52.96,14.15,52.96,14.15c0,0,31.43-14.62,45.88-16.62,0,0,32.33-6.64,42.47-6.32,8.13.26,55.03,1.04,102.1,16.68l31.87,9.64s66.95-23.27,76.4-25.33,65.91-12.54,76.24-13.17,67.01-2.35,70.59-2.35,45.81,3.25,58.98,5.8,47.33,6.65,74.51,15.59,74.29,18.85,74.29,18.85c0,0,45.85-22.04,76.48-24.74s42.34-4.64,69.12-.37,83.28,17.63,98.21,20.3,16.12,2.73,16.12,2.73c0,0,60.58-14.57,88-23.32s64.29-11.49,64.29-11.49c0,0,42.35-2.44,69.28,5.82s57.58,15.55,73.91,23.25,47.64,20.59,52.3,21.15v377.87L0,527.08V106.76Z"/>
</svg>